<svg width="29" height="28" viewBox="0 0 29 28" fill="none" xmlns="http://www.w3.org/2000/svg">
<g clip-path="url(#clip0_2138_132)">
<path d="M27.9359 19.5121L18.7406 3.57708C17.912 2.14221 16.3812 1.25806 14.724 1.25806C13.0668 1.25806 11.5359 2.14221 10.7074 3.57708L1.3505 19.7849C0.521919 21.2198 0.521919 22.9881 1.3505 24.423C2.17908 25.8578 3.70994 26.742 5.3671 26.742H24.0809C24.086 26.742 24.091 26.742 24.091 26.742C26.6526 26.742 28.7291 24.6654 28.7291 22.104C28.7291 21.144 28.436 20.2498 27.9359 19.5121ZM16.7096 21.0631C16.7096 22.1595 15.8658 22.9982 14.7291 22.9982C13.5923 22.9982 12.7486 22.1595 12.7486 21.0631V21.0177C12.7486 19.9264 13.5923 19.0826 14.7291 19.0826C15.8658 19.0826 16.7096 19.9214 16.7096 21.0177V21.0631ZM16.755 8.01807L15.7749 16.5767C15.7092 17.1931 15.3 17.5771 14.7291 17.5771C14.1582 17.5771 13.7489 17.188 13.6832 16.5767L12.7031 8.01302C12.6374 7.35116 12.9962 6.85098 13.6125 6.85098H15.8406C16.457 6.85604 16.8207 7.35622 16.755 8.01807Z" fill="#BF5751"/>
</g>
<defs>
<clipPath id="clip0_2138_132">
<rect width="28" height="28" fill="white" transform="translate(0.729065)"/>
</clipPath>
</defs>
</svg>
