<svg width="26" height="26" viewBox="0 0 26 26" fill="none" xmlns="http://www.w3.org/2000/svg">
<g clip-path="url(#clip0_2138_69)">
<path d="M13 20.6917C12.0047 20.6917 11.1762 19.9291 11.0923 18.9372L9.79827 3.48193C9.72294 2.58556 10.0269 1.69945 10.6353 1.03762C11.243 0.376651 12.1012 0 13 0C13.8989 0 14.7571 0.376651 15.3648 1.03762C15.9733 1.69945 16.2771 2.58556 16.2018 3.48193L14.9077 18.9372C14.8239 19.9291 13.9954 20.6917 13 20.6917Z" fill="#B39E62"/>
<path d="M13 21.8292C14.1519 21.8292 15.0854 22.7627 15.0854 23.9147C15.0854 25.0666 14.1519 26 13 26C11.8481 26 10.9146 25.0666 10.9146 23.9147C10.9146 22.7627 11.8481 21.8292 13 21.8292Z" fill="#B39E62"/>
</g>
<defs>
<clipPath id="clip0_2138_69">
<rect width="26" height="26" fill="white" transform="matrix(-1 0 0 1 26 0)"/>
</clipPath>
</defs>
</svg>
