<?xml version="1.0" encoding="utf-8"?>
<!-- Generator: Adobe Illustrator 20.1.0, SVG Export Plug-In . SVG Version: 6.00 Build 0)  -->
<svg version="1.1" id="Ebene_1" xmlns="http://www.w3.org/2000/svg" xmlns:xlink="http://www.w3.org/1999/xlink" x="0px" y="0px"
	 viewBox="0 0 100 100" style="enable-background:new 0 0 100 100;" xml:space="preserve">
<g id="_x33_0x30_10_">
	<circle style="fill:#439844;" cx="50" cy="50" r="49"/>
	<path style="fill:#FFFFFF;" d="M37.049,29.354c0-4.01,3.682-7.445,10.116-7.445c11.356,0,21.046,6.103,27.474,13.046V22.831
		c-7.424-5.767-16.79-9.187-27.233-9.187c-12.523,0-26.476,7.688-26.476,21.976c0,27.253,41.348,17.465,41.348,33.269
		c0,4.175-5.511,8.112-12.361,8.112c-11.202,0-22.302-6.775-28.405-15.548v14.534c6.435,5.764,18.213,10.366,28.405,10.366
		c18.294,0,29.153-13.035,29.153-24.231C79.07,34.372,37.049,46.239,37.049,29.354L37.049,29.354z"/>
</g>
</svg>
