<?xml version="1.0" encoding="iso-8859-1"?><!-- Generator: Adobe Illustrator 22.1.0, SVG Export Plug-In . SVG Version: 6.00 Build 0)  --><svg xmlns="http://www.w3.org/2000/svg" xmlns:xlink="http://www.w3.org/1999/xlink" viewBox="0 0 24 24" width="48px" height="48px"><g id="Rounded"><path d="M12,4c-4.418,0-8,3.582-8,8s3.582,8,8,8s8-3.582,8-8S16.418,4,12,4z M12,16c-2.209,0-4-1.791-4-4c0-2.209,1.791-4,4-4s4,1.791,4,4C16,14.209,14.209,16,12,16z"/><path d="M14.917,5l-0.426-2.191C14.399,2.339,13.988,2,13.509,2h-3.018c-0.479,0-0.89,0.339-0.982,0.809L9.083,5H14.917z"/><path d="M9.083,19l0.426,2.191C9.601,21.661,10.012,22,10.491,22h3.018c0.479,0,0.89-0.339,0.982-0.809L14.917,19H9.083z"/><path d="M7.396,5.974l-2.11-0.726C4.833,5.092,4.334,5.279,4.094,5.693L2.585,8.307c-0.239,0.415-0.151,0.941,0.21,1.255l1.684,1.464L7.396,5.974z"/><path d="M16.604,18.026l2.11,0.726c0.453,0.156,0.952-0.031,1.192-0.446l1.509-2.614c0.239-0.415,0.151-0.941-0.21-1.255l-1.684-1.464L16.604,18.026z"/><path d="M4.479,12.974l-1.684,1.464c-0.361,0.314-0.449,0.84-0.21,1.255l1.509,2.614c0.239,0.415,0.739,0.601,1.192,0.446l2.11-0.726L4.479,12.974z"/><path d="M19.521,11.026l1.684-1.464c0.361-0.314,0.449-0.84,0.21-1.255l-1.509-2.614c-0.239-0.415-0.739-0.601-1.192-0.446l-2.11,0.726L19.521,11.026z"/></g></svg>