<?xml version="1.0" encoding="UTF-8"?>
<svg width="30pt" height="30pt" version="1.1" viewBox="0 0 1200 1200" xmlns="http://www.w3.org/2000/svg">
 <path d="m600 87.602c-297.36 0-538.44 216.24-538.44 483 0 94.199 30.238 182.16 82.199 256.44l-83.879 285.24 331.2-96.48c64.199 24.238 134.76 37.68 208.8 37.68 297.36 0 538.44-216.24 538.44-483s-240.96-482.88-538.32-482.88zm-221.64 552.84c-38.641 0-69.84-31.32-69.84-69.84 0-38.52 31.32-69.84 69.84-69.84s69.84 31.32 69.84 69.84c0 38.52-31.32 69.84-69.84 69.84zm221.64 0c-38.641 0-69.84-31.32-69.84-69.84 0-38.52 31.32-69.84 69.84-69.84s69.84 31.32 69.84 69.84c0 38.52-31.32 69.84-69.84 69.84zm221.64 0c-38.641 0-69.84-31.32-69.84-69.84 0-38.52 31.32-69.84 69.84-69.84s69.84 31.32 69.84 69.84c0 38.52-31.32 69.84-69.84 69.84z"/>
</svg>
