<?xml version="1.0" encoding="utf-8"?>
<!-- Generator: Adobe Illustrator 20.1.0, SVG Export Plug-In . SVG Version: 6.00 Build 0)  -->
<svg version="1.1" id="Ebene_1" xmlns="http://www.w3.org/2000/svg" xmlns:xlink="http://www.w3.org/1999/xlink" x="0px" y="0px"
	 viewBox="0 0 100 100" style="enable-background:new 0 0 100 100;" xml:space="preserve">
<g id="_x33_0x30_39_">
	<g>
		<rect x="1" y="1" style="fill:#003399;" width="98" height="98"/>
		<path style="fill:#FFFFFF;" d="M53.729,91.559c6.363-0.621,12.307-2.645,17.028-5.799c2.372-1.585,5.718-4.866,7.172-7.034
			c2.126-3.169,3.669-6.976,4.495-11.086c0.32-1.592,0.359-4.39,0.424-30.38L82.92,8.634H63.307v26.21
			c0,17.23-0.076,26.888-0.221,28.188c-0.26,2.329-1.026,5.114-1.804,6.555c-0.976,1.809-2.777,3.53-4.656,4.45
			c-5.17,2.531-12.734,1.62-16.319-1.966c-1.826-1.826-3.081-4.766-3.607-8.454c-0.129-0.901-0.208-11.505-0.21-28.214L36.486,8.634
			H17.093v27.109c0,27.197,0.052,29.493,0.748,32.929c1.718,8.486,7.012,15.24,15.117,19.286
			C38.898,90.923,46.588,92.256,53.729,91.559z"/>
	</g>
</g>
</svg>
